<?xml version="1.0" standalone="no"?>
<svg viewBox="0 0 200 200" xmlns="http://www.w3.org/2000/svg">
  <path fill="#3470BD" d="M40.1,-64.2C52.5,-54.3,63.5,-44.2,69.2,-31.6C74.8,-19.1,75.1,-4.1,75.1,12.3C75.1,28.7,74.8,46.6,66.3,58.7C57.8,70.8,41.2,77.2,24.4,81.2C7.7,85.2,-9.2,86.9,-23.2,81.6C-37.1,76.2,-48.3,63.8,-59.9,51.4C-71.6,38.9,-83.8,26.4,-86.7,12C-89.5,-2.4,-83,-18.7,-72.9,-30.2C-62.8,-41.6,-49.1,-48.3,-36.3,-58.1C-23.6,-67.8,-11.8,-80.5,1,-82.1C13.8,-83.7,27.6,-74.1,40.1,-64.2Z" transform="translate(100 100)" />
</svg>
